<?xml version="1.0" encoding="UTF-8" standalone="no"?>
<svg
   width="1em"
   height="1em"
   viewBox="0 0 256 256"
   version="1.1"
   id="svg1"
   sodipodi:docname="i-student-active.svg"
   inkscape:version="1.3.2 (091e20e, 2023-11-25, custom)"
   xmlns:inkscape="http://www.inkscape.org/namespaces/inkscape"
   xmlns:sodipodi="http://sodipodi.sourceforge.net/DTD/sodipodi-0.dtd"
   xmlns="http://www.w3.org/2000/svg"
   xmlns:svg="http://www.w3.org/2000/svg">
  <defs
     id="defs1" />
  <sodipodi:namedview
     id="namedview1"
     pagecolor="#ffffff"
     bordercolor="#000000"
     borderopacity="0.25"
     inkscape:showpageshadow="2"
     inkscape:pageopacity="0.0"
     inkscape:pagecheckerboard="0"
     inkscape:deskcolor="#d1d1d1"
     inkscape:zoom="1.6347656"
     inkscape:cx="-29.667861"
     inkscape:cy="209.51016"
     inkscape:window-width="1920"
     inkscape:window-height="1051"
     inkscape:window-x="-9"
     inkscape:window-y="-9"
     inkscape:window-maximized="1"
     inkscape:current-layer="svg1" />
  <path
     fill="currentColor"
     d="m 226.53,56.41 -96,-32 c -1.64224,-0.547457 -3.41776,-0.547457 -5.06,0 l -96,32 C 26.203147,57.499036 23.999745,60.556408 24,64 v 80 c 0,4.41828 3.581722,8 8,8 4.418278,0 8,-3.58172 8,-8 V 75.1 l 33.59,11.19 c -18.582586,30.02149 -9.342472,69.42062 20.65,88.05 -18,7.06 -33.56,19.83 -44.94,37.29 -2.491421,3.70292 -2.196014,11.17215 2.267027,11.16655 l 152.740893,-0.19173 c 4.37364,-0.005 4.72877,-7.27771 2.39208,-10.97482 -11.38,-17.46 -27,-30.23 -44.94,-37.29 29.96202,-18.62753 39.19855,-57.98902 20.65,-88 l 44.12,-14.7 c 7.29571,-2.430192 7.29571,-12.749808 0,-15.18 z"
     id="path1"
     sodipodi:nodetypes="cccccsssccccsscccccc"
     style="fill:#0960bd;fill-opacity:1" />
</svg>
